<?xml version="1.0" standalone="no"?>
<!DOCTYPE svg PUBLIC "-//W3C//DTD SVG 20010904//EN"
 "http://www.w3.org/TR/2001/REC-SVG-20010904/DTD/svg10.dtd">
<svg version="1.0" xmlns="http://www.w3.org/2000/svg"
 width="114pt" height="114pt" viewBox="0 0 114 114"
 preserveAspectRatio="xMidYMid meet">
<g transform="translate(0.000000,114.000000) scale(0.100000,-0.100000)"
fill="#000000" stroke="none">
<path d="M172 968 c-16 -16 -16 -134 0 -144 7 -5 112 -9 233 -9 242 -1 260 -5
328 -64 51 -45 80 -111 80 -180 0 -66 -19 -114 -63 -165 -54 -61 -105 -78
-247 -81 -68 -1 -126 -5 -130 -8 -10 -10 -11 -120 -1 -139 7 -16 24 -18 118
-18 131 0 197 12 270 51 127 67 203 183 216 328 17 190 -107 370 -293 424 -68
20 -491 25 -511 5z"/>
<path d="M198 635 c-32 -18 -46 -71 -28 -105 20 -37 58 -45 211 -44 142 1 143
2 166 28 30 35 29 76 -2 110 -24 26 -25 26 -172 26 -111 -1 -155 -5 -175 -15z"/>
</g>
</svg>
